<svg id="Layer_1" data-name="Layer 1" xmlns="http://www.w3.org/2000/svg" viewBox="0 0 35.67 36.36"><defs><style>.cls-1{fill:#1f2356;}</style></defs><path class="cls-1" d="M26.36,10.23H30.7c.54,0,.68.1.8.63.37,1.59.72,3.18,1.08,4.77a2.3,2.3,0,0,1,0,.46v16c0,.76-.11.87-.88.88h-.25v1.57c0,.51-.19.7-.71.7H4.93c-.54,0-.72-.18-.72-.72V32.94c-.17,0-.33,0-.49,0-.44,0-.64-.2-.64-.65s0-.69,0-1q0-7.08,0-14.16a10.36,10.36,0,0,1,.28-2.6c.32-1.23.57-2.48.85-3.72.1-.43.26-.55.69-.55H9.32V1.9c0-.59.17-.76.76-.76H25.62c.56,0,.73.18.73.75,0,2.64,0,5.27,0,7.91ZM5.24,11.38c-.21.92-.42,1.83-.61,2.74a10.09,10.09,0,0,0-.4,2.07c0,5.08,0,10.15,0,15.23v.36H31.47v-.45c0-4.43,0-8.85,0-13.28a14.49,14.49,0,0,0-.43-4c-.24-.88-.41-1.79-.61-2.68Zm5.23-1.17H25.19V2.3H10.47ZM30.32,33H5.37v1.09h25Z"/><path class="cls-1" d="M26.92,21.59a9.08,9.08,0,1,1-9.11-9.09A9.06,9.06,0,0,1,26.92,21.59Zm-3.47-3.9.95-.56A7.63,7.63,0,0,0,22.3,15l-.57.94-1-.57.53-1a7.21,7.21,0,0,0-2.89-.76v1.06H17.26V13.68a7.33,7.33,0,0,0-2.87.76l.54,1-1,.56-.56-1a7.67,7.67,0,0,0-2.1,2.11l1,.56-.57,1-1-.54A7.29,7.29,0,0,0,9.94,21H11v1.13H9.93A7.18,7.18,0,0,0,10.7,25l1-.54.57,1-1,.57a7.77,7.77,0,0,0,2.11,2.09L14,27.2l1,.57-.55,1a7.3,7.3,0,0,0,2.91.76V28.42h1.13V29.5a7.75,7.75,0,0,0,2.88-.77l-.55-1,1-.57.56.95A7.67,7.67,0,0,0,24.4,26l-.95-.56.57-1L25,25a7.37,7.37,0,0,0,.75-2.9H24.67V21h1.08A7.25,7.25,0,0,0,25,18.14l-1,.53Z"/><path class="cls-1" d="M7.62,12.5a1.71,1.71,0,1,1-1.7,1.71A1.7,1.7,0,0,1,7.62,12.5Zm.56,1.69a.58.58,0,0,0-.57-.55.57.57,0,1,0,0,1.13A.59.59,0,0,0,8.18,14.19Z"/><path class="cls-1" d="M22.93,3.44V4.53H16.72V3.44Z"/><path class="cls-1" d="M16.72,6.8V5.71h6.21V6.8Z"/><path class="cls-1" d="M22.93,8V9.07h-6.2V8Z"/><path class="cls-1" d="M12.74,4.52V3.44H15V4.52Z"/><path class="cls-1" d="M12.74,6.79V5.71H15V6.79Z"/><path class="cls-1" d="M15,9.08H12.75V8H15Z"/><path class="cls-1" d="M17.27,15.93h1.14v.68c0,1.62,0,3.24,0,4.86a.65.65,0,0,1-.34.65l-3.81,2.24a.83.83,0,0,1-.12,0l-.57-1,2.55-1.5c.38-.22.9-.37,1.08-.7s.07-.87.07-1.32C17.28,18.6,17.27,17.28,17.27,15.93Z"/></svg>