<svg id="Layer_1" data-name="Layer 1" xmlns="http://www.w3.org/2000/svg" viewBox="0 0 35.67 36.36"><defs><style>.cls-1{fill:#a62222;}</style></defs><path class="cls-1" d="M15.65.68H20c.12.64.24,1.27.38,1.9,0,.09.16.18.26.22.54.24,1.09.44,1.63.69a.42.42,0,0,0,.49,0c.49-.34,1-.65,1.52-1,1,1,1.91,1.91,2.85,2.88a.38.38,0,0,1,0,.35c-.15.39-.32.78-.5,1.2a3.92,3.92,0,0,1,3.38,1.7,4.94,4.94,0,0,1,.77,3,4.21,4.21,0,0,1-1.57,3.54.38.38,0,0,0-.12.29s.15.11.23.13a14.86,14.86,0,0,1,2,.54,1.63,1.63,0,0,0,1.74-.23,3,3,0,0,1,2.21-.46v8.27a1.06,1.06,0,0,0-.19.06l-9.74,4.86a.43.43,0,0,0-.25.42,1.67,1.67,0,0,1-1.38,1.56.35.35,0,0,0-.34.34,1.63,1.63,0,0,1-1.38,1.36c-.2,0-.25.12-.3.29a3.24,3.24,0,0,1-.38.82,1.64,1.64,0,0,1-1.26.63,1.77,1.77,0,0,1-2,1.68A1.94,1.94,0,0,1,16.86,35a.33.33,0,0,0-.42-.09,1.72,1.72,0,0,1-2.51-1.25.3.3,0,0,0-.3-.28,1.71,1.71,0,0,1-1.36-1.25c0-.13-.06-.26-.09-.39a1.79,1.79,0,0,1-1.66-1.56c0-.07-.15-.16-.24-.17a1.77,1.77,0,0,1-1.45-1.48c0-.09,0-.2-.1-.24-.52-.33-1.05-.64-1.55-.94-.13.17-.23.41-.33.41a3.47,3.47,0,0,1-1.21-.09c-1.66-.51-3.3-1.09-5-1.62a.41.41,0,0,1-.34-.47c0-3.66,0-7.33,0-11,0-.11,0-.22,0-.35,1,0,2-.16,2.78.54.23.19.55.28.78.47a2.1,2.1,0,0,0,2.33.31l.3-.17c-.07-.11-.11-.25-.21-.32A3.76,3.76,0,0,1,5,12.78a12.6,12.6,0,0,1-.09-1.94A3.91,3.91,0,0,1,8.07,7,7.91,7.91,0,0,1,9,6.87c-.15-.34-.26-.68-.42-1a.55.55,0,0,1,.13-.76c.69-.64,1.34-1.31,2-2,.23-.24.44-.49.66-.73.57.38,1.07.72,1.59,1a.53.53,0,0,0,.39,0c.58-.22,1.15-.47,1.73-.71a.4.4,0,0,0,.22-.22C15.41,2,15.53,1.32,15.65.68Zm18.54,15.9-.39.2c-3.22,1.7-6.44,3.38-9.65,5.09a1.94,1.94,0,0,1-1.24.25,3.56,3.56,0,0,1-.63-.14l-2.91-.84a2.63,2.63,0,0,0-1.93.14c-1,.5-2.05,1-3.07,1.54A.84.84,0,0,0,14,24a.78.78,0,0,0,1.15.23L17,23.12a2.3,2.3,0,0,1,3,.29c1.51,1.34,3,2.69,4.49,4.05a.38.38,0,0,0,.51.06q4.45-2.23,8.94-4.46a.47.47,0,0,0,.28-.48c0-1.87,0-3.75,0-5.63ZM15,28.89a1.78,1.78,0,0,1,1.66,1.56.37.37,0,0,0,.24.17,2.22,2.22,0,0,1,1.1.65c.5.5,1,1,1.58,1.43a.64.64,0,0,0,.92-.09c.21-.28.14-.6-.2-.89l-2.57-2.14-.28-.25.72-.86,2.34,1.94c.26.21.5.44.77.62a.67.67,0,0,0,.92-.12.59.59,0,0,0-.17-.84c-.25-.23-.52-.44-.78-.66l-2.11-1.77.72-.87.41.34c.86.71,1.71,1.43,2.58,2.14a.7.7,0,0,0,1,0c.24-.28.18-.63-.17-.95l-4.5-4.05a1.21,1.21,0,0,0-1.67-.15l-1.9,1.14a1.9,1.9,0,0,1-2.89-1.66,1.79,1.79,0,0,1,1-1.71c.83-.45,1.69-.86,2.53-1.28l.3-.18a6,6,0,0,0-3.09-.49c-1.44.24-2.86.59-4.29.91a.43.43,0,0,0-.28.26c-.15.46-.27.92-.4,1.38-.35,1.23-.7,2.46-1.06,3.7l1.48.89.3.18a16.09,16.09,0,0,1,1.27-1.34,1.73,1.73,0,0,1,2.67.64,6.36,6.36,0,0,1,.2.66A1.81,1.81,0,0,1,15,28.89Zm-2.79-9.95.22,0a6.91,6.91,0,0,1,3.41.08l3.3.93,3.61,1c.12,0,.25,0,.37.06s.33,0,.33-.3c0-.61,0-1.21,0-1.81a1.66,1.66,0,0,0-1.39-1.73c-.92-.23-1.83-.47-2.75-.68-.29-.07-.41-.19-.38-.5a7.08,7.08,0,0,0,0-1,.5.5,0,0,1,.29-.54,2.63,2.63,0,0,0,1.38-2.05,8.12,8.12,0,0,0-.05-2A2.8,2.8,0,0,0,18,8a2.73,2.73,0,0,0-2.81,2.07A7.93,7.93,0,0,0,15,11.73a2.85,2.85,0,0,0,1.48,2.73.49.49,0,0,1,.2.37c0,.39,0,.78,0,1.16s-.1.41-.38.48c-.93.21-1.85.45-2.77.68A1.64,1.64,0,0,0,12.24,18.94ZM30.7,17.12l0-.08c-.76-.19-1.51-.4-2.28-.56a.44.44,0,0,1-.41-.55c0-.36,0-.72,0-1.09a.38.38,0,0,1,.23-.4A2.63,2.63,0,0,0,29.49,13a4.94,4.94,0,0,0,0-2.85A2.76,2.76,0,0,0,26.89,8a2.72,2.72,0,0,0-2.72,2.1,8.08,8.08,0,0,0-.11,1.56,2.89,2.89,0,0,0,1.51,2.78.45.45,0,0,1,.18.31c0,.41,0,.82,0,1.23s-.08.38-.33.44c-.53.11-1,.25-1.64.4,1,1,.79,2.24.83,3.47Zm-18.87-.27c-.56-.15-1.09-.29-1.63-.41a.3.3,0,0,1-.28-.37q0-.6,0-1.2a.44.44,0,0,1,.26-.45,2.6,2.6,0,0,0,1.18-1.29,4.75,4.75,0,0,0,.06-3.2A2.75,2.75,0,0,0,8.8,8a2.67,2.67,0,0,0-2.65,2A7.54,7.54,0,0,0,6,11.76a2.82,2.82,0,0,0,1.46,2.7.48.48,0,0,1,.21.34c0,.44,0,.88,0,1.33a.26.26,0,0,1-.24.3c-.32.06-.64.16-1,.26,1,.56,1.84,1.08,2.72,1.58a.38.38,0,0,1,.23.4c0,.31,0,.61,0,.93.5-.11,1-.23,1.45-.31a.26.26,0,0,0,.25-.32,2.75,2.75,0,0,1,.37-1.54C11.56,17.24,11.69,17.06,11.83,16.85Zm2-5.44a11.69,11.69,0,0,1,.1-1.19,3.75,3.75,0,0,1,2.6-3.1,3.76,3.76,0,0,1,4,.87c1.48,1.33,1.53,4,1,5.48a3.92,3.92,0,0,1-1.19,1.6c-.09.07-.13.21-.2.32a1.82,1.82,0,0,0,.31.16c.57.15,1.14.3,1.71.43a1.07,1.07,0,0,0,.47,0c.59-.14,1.17-.29,1.75-.45.1,0,.25-.11.25-.15a.52.52,0,0,0-.16-.3,7.74,7.74,0,0,1-.89-1,5.76,5.76,0,0,1-.33-4.72.58.58,0,0,0,0-.43,6,6,0,0,0-5.06-3.1,6,6,0,0,0-5.69,3.12.49.49,0,0,0,0,.41,6.28,6.28,0,0,1,.23,3.46,3.74,3.74,0,0,1-1.43,2.29.42.42,0,0,0-.14.27c0,.07.15.14.24.17.59.16,1.18.31,1.78.45a.79.79,0,0,0,.43,0c.61-.14,1.22-.3,1.82-.46.08,0,.2-.09.21-.16a.42.42,0,0,0-.12-.25,8.59,8.59,0,0,1-.68-.67A4.3,4.3,0,0,1,13.85,11.41ZM24,8l1.19-.76a.38.38,0,0,0,.13-.15c.18-.4.36-.81.52-1.22a.29.29,0,0,0-.05-.27c-.54-.56-1.1-1.11-1.68-1.68-.46.3-.91.6-1.38.88a.46.46,0,0,1-.38,0,9.82,9.82,0,0,0-2.7-1.12.45.45,0,0,1-.26-.28c-.11-.44-.19-.89-.28-1.33,0-.17-.09-.28-.31-.28q-1,0-2,0c-.22,0-.27.11-.3.28-.09.43-.21.86-.27,1.3,0,.23-.15.3-.34.34a8.19,8.19,0,0,0-2.57,1.07.42.42,0,0,1-.52,0c-.43-.3-.87-.57-1.34-.88L10.45,5c-.23.24-.59.45-.64.72s.2.63.32,1a3.52,3.52,0,0,0,.18.4.5.5,0,0,0,.13.19L11.63,8A7.38,7.38,0,0,1,24,8ZM5.94,17.73,2,15.42a1.37,1.37,0,0,0-.48-.06V24.8c0,.15-.05.3.18.37.74.23,1.46.49,2.22.74Zm.18,8.92c.33-1.17.66-2.3,1-3.44s.72-2.5,1.07-3.76c0-.13,0-.37,0-.42-.36-.25-.75-.46-1.17-.7L5,26.27Zm4.38,2.28c.17-.06.3-.06.36-.12.42-.41.86-.81,1.24-1.26a.52.52,0,0,0-.13-.73.53.53,0,0,0-.75,0,10.5,10.5,0,0,0-1.15,1.16.77.77,0,0,0,0,.63C10.13,28.73,10.37,28.83,10.5,28.93Zm1.7,1.69a1.3,1.3,0,0,0,.39-.14,16.28,16.28,0,0,0,1.17-1.18.54.54,0,0,0-.08-.77.53.53,0,0,0-.74-.07,9.32,9.32,0,0,0-1.17,1.18.71.71,0,0,0,0,.62C11.82,30.43,12.06,30.52,12.2,30.62Zm3.44,0a1.89,1.89,0,0,0-.42-.5.56.56,0,0,0-.72.1c-.32.3-.63.62-.94.94a.62.62,0,0,0-.05.91.64.64,0,0,0,.94,0c.31-.29.61-.59.89-.9A3,3,0,0,0,15.64,30.63Zm1.69,1.69a1.89,1.89,0,0,0-.42-.5.53.53,0,0,0-.68.09c-.34.31-.66.63-1,.95a.63.63,0,0,0,0,.92.63.63,0,0,0,.94,0c.3-.29.6-.59.88-.9A2.65,2.65,0,0,0,17.33,32.32Zm1,.8L17.5,34c.29.3.58.63,1.05.46a.62.62,0,0,0,.37-.42C19,33.56,18.57,33.4,18.29,33.12Z"/></svg>