<svg id="Layer_1" data-name="Layer 1" xmlns="http://www.w3.org/2000/svg" viewBox="0 0 35.67 36.36"><defs><style>.cls-1{fill:#1f2356;}</style></defs><path class="cls-1" d="M20.56,2.68A5.28,5.28,0,0,1,21,3c1.81,1.81,3.62,3.63,5.44,5.43a1.13,1.13,0,0,1,.36.88c0,2.52,0,5,0,7.54v.24a.6.6,0,0,1-.61.62.58.58,0,0,1-.6-.62c0-.76,0-1.53,0-2.3V9.7h-4a1.81,1.81,0,0,1-1.86-1.85v-4H4.38c-.64,0-.83.2-.83.83V31.63c0,.64.19.84.82.84h5V27.76a.64.64,0,0,1,.72-.73h3.66a.62.62,0,0,1,.7.71c0,1.45,0,2.91,0,4.36v.35h1.22V24.34c0-.58.19-.77.78-.77H20a.61.61,0,0,1,.7.7v8.18H22V20.12c0-.61.19-.79.8-.79h3.57c.5,0,.72.21.72.72v12.4h1.21V23.62c0-.56.47-.88.9-.63a.64.64,0,0,1,.31.61v8.85H32.1V16.56H29.46V19a.61.61,0,1,1-1.21,0v-3a.56.56,0,0,1,.58-.61c1.31,0,2.62,0,3.93,0,.19,0,.38.23.58.36V33.25a.73.73,0,0,1-.7.43H4.16a1.8,1.8,0,0,1-1.82-1.83V4.49a1.78,1.78,0,0,1,1.2-1.71l.25-.1Zm2.62,17.87V32.44h2.63V20.55Zm-6.29,4.24v7.65h2.63V24.79Zm-3.67,3.5H10.59v4.16h2.63ZM21,4.83c0,1,0,2,0,3a.61.61,0,0,0,.63.66h3Z"/><path class="cls-1" d="M16.72,13.82a5.59,5.59,0,1,1-6.43-6.1c.2,0,.26-.09.25-.28a6.94,6.94,0,0,1,0-.79A.61.61,0,0,1,11.23,6a7.22,7.22,0,0,1,7,5.93,9.23,9.23,0,0,1,.11,1.29.56.56,0,0,1-.6.61ZM10.53,8.93a4.34,4.34,0,0,0,.84,8.64c2-.07,4.05-1.93,4.05-3.75H11.34c-.61,0-.81-.19-.81-.81V8.93Zm1.25,3.66H17.1C17.22,10.21,14,7,11.78,7.3Z"/><path class="cls-1" d="M12,20.48h5.63c.44,0,.71.23.72.59a.58.58,0,0,1-.51.61,1.88,1.88,0,0,1-.34,0H6.16a.59.59,0,0,1-.55-.57.6.6,0,0,1,.52-.64H12Z"/><path class="cls-1" d="M8.16,23.41c.62,0,1.25,0,1.87,0a.56.56,0,0,1,.59.34.63.63,0,0,1-.6.88c-1.24,0-2.49,0-3.74,0a.62.62,0,1,1,0-1.23C6.91,23.4,7.54,23.41,8.16,23.41Z"/><path class="cls-1" d="M28.85,20.54a.59.59,0,0,1,.61.6.61.61,0,0,1-.62.61.62.62,0,0,1-.59-.6A.59.59,0,0,1,28.85,20.54Z"/><path class="cls-1" d="M13.72,24a.61.61,0,0,1-.61.61.61.61,0,0,1-.6-.62.62.62,0,0,1,.6-.6A.61.61,0,0,1,13.72,24Z"/></svg>