<svg id="Layer_1" data-name="Layer 1" xmlns="http://www.w3.org/2000/svg" viewBox="0 0 35.67 36.36"><defs><style>.cls-1{fill:#1f2356;}</style></defs><path class="cls-1" d="M.66,7.51a3.27,3.27,0,0,1,.74-1.4A2.62,2.62,0,0,1,3.29,5.3H14.1A2.62,2.62,0,0,1,16.73,8c0,2.64,0,5.28,0,7.92,0,.39-.21.62-.51.62s-.52-.24-.52-.65q0-3.87,0-7.75a1.78,1.78,0,0,0-.56-1.41A1.65,1.65,0,0,0,14,6.31H3.37A1.63,1.63,0,0,0,1.67,8q0,5,0,10.07a1,1,0,0,0,0,.15H5c0-.52,0-1,0-1.52a3.19,3.19,0,0,1,3.3-3.29,7.9,7.9,0,0,1,1.76.12,3.08,3.08,0,0,1,2.39,2.85c0,.42,0,.85,0,1.32H32.7A2.15,2.15,0,0,1,35,19.39a2.74,2.74,0,0,1,0,.5q0,3.41,0,6.81a2.12,2.12,0,0,1-2.22,2.21q-7.86,0-15.73,0c-.27,0-.4.05-.49.34a2.61,2.61,0,0,1-2.52,1.81c-3.55,0-7.11,0-10.67,0A2.65,2.65,0,0,1,.72,29a.67.67,0,0,0-.06-.12ZM9.38,27.87l.38,0h23A1.15,1.15,0,0,0,34,26.61V20a1.11,1.11,0,0,0-1.25-1.26H12.1A1.13,1.13,0,0,0,10.81,20q0,3,0,6a.93.93,0,0,1-.31.74C10.14,27.11,9.79,27.47,9.38,27.87Zm6.21,1H8.28a.56.56,0,0,1-.6-.34.52.52,0,0,1,.2-.62c.56-.56,1.12-1.13,1.69-1.68a.7.7,0,0,0,.23-.56c0-1.95,0-3.91,0-5.87a1.83,1.83,0,0,1,1-1.79,1,1,0,0,0,.64-1.27v-.27a2.13,2.13,0,0,0-2-2.11,11.06,11.06,0,0,0-1.41,0A2.05,2.05,0,0,0,6.05,16a21.31,21.31,0,0,0-.12,2.16H7c.38,0,.76,0,1.14,0a.47.47,0,0,1,.47.48.48.48,0,0,1-.45.53,1.83,1.83,0,0,1-.33,0H1.66v8.9a1.7,1.7,0,0,0,1.9,1.91H14A1.56,1.56,0,0,0,15.59,28.91Z"/><path class="cls-1" d="M10.8,10.24a2.17,2.17,0,0,1-.88,2.13,2,2,0,0,1-2.15.18,2,2,0,0,1-1.2-1.81c0-.39,0-.78,0-1.17a1,1,0,0,1,1-1c.73,0,1.47,0,2.21,0a1,1,0,0,1,1,1C10.82,9.74,10.8,10,10.8,10.24Zm-1-.7h-2s-.16.1-.16.15a7.27,7.27,0,0,0,0,1.24,1,1,0,0,0,1.12.81,1.06,1.06,0,0,0,1-.9C9.81,10.42,9.78,10,9.78,9.54Z"/><path class="cls-1" d="M24.63,25.47c-.11.13-.21.35-.36.4a1,1,0,0,1-.57-.13c-.07,0-.1-.16-.14-.25-.25-.63-.25-.63-.94-.63-.1,0-.2,0-.3,0-.61-.08-1.1,0-1.24.75a.45.45,0,0,1-.65.28.51.51,0,0,1-.26-.7c.46-1.23.94-2.46,1.4-3.69.06-.15.12-.29.17-.44s.27-.52.61-.52a.64.64,0,0,1,.63.51l1.3,3.48C24.39,24.82,24.5,25.11,24.63,25.47Zm-2.85-1.65h1.14l-.56-1.52Z"/><path class="cls-1" d="M30.38,21.58v1.15h1.08c.36,0,.59.21.59.51a.53.53,0,0,1-.59.5H30.38V24.9h1.29a.44.44,0,0,1,.48.38.79.79,0,0,1-.16.5.52.52,0,0,1-.36.12c-.58,0-1.17,0-1.75,0a.49.49,0,0,1-.55-.53q0-2.13,0-4.26a.52.52,0,0,1,.58-.56q.86,0,1.71,0a.54.54,0,0,1,.57.5.55.55,0,0,1-.58.53C31.21,21.59,30.81,21.58,30.38,21.58Z"/><path class="cls-1" d="M17.48,21.58v1.15h1.08c.36,0,.59.19.6.49s-.24.52-.61.52H17.49V24.9h1.16c.4,0,.65.2.64.51s-.24.49-.63.49c-.55,0-1.09,0-1.64,0-.39,0-.58-.18-.58-.57,0-1.4,0-2.79,0-4.19a.53.53,0,0,1,.58-.59c.56,0,1.13,0,1.7,0a.52.52,0,1,1,0,1C18.32,21.59,17.92,21.58,17.48,21.58Z"/><path class="cls-1" d="M26.46,24c.36-1.06.68-2.06,1-3.05a.54.54,0,0,1,.62-.43.5.5,0,0,1,.37.65c-.47,1.44-.95,2.87-1.43,4.31a.58.58,0,0,1-.59.42.61.61,0,0,1-.57-.44l-1.47-4.23a.51.51,0,0,1,.32-.7.5.5,0,0,1,.64.38c.31.87.61,1.74.92,2.62C26.33,23.69,26.39,23.83,26.46,24Z"/><path class="cls-1" d="M14.05,24.9H15c.36,0,.57.2.57.51a.49.49,0,0,1-.54.51q-.72,0-1.44,0c-.38,0-.56-.21-.56-.6,0-1.4,0-2.8,0-4.19,0-.38.21-.61.53-.61s.49.23.49.6c0,1.1,0,2.19,0,3.29Z"/><path class="cls-1" d="M6,23H3.9a.46.46,0,0,1-.52-.38.88.88,0,0,1,.2-.54C3.64,22,3.82,22,4,22H8.07c.39,0,.59.21.58.54s-.23.49-.6.49Z"/><path class="cls-1" d="M6,25.15H4c-.42,0-.65-.18-.66-.5s.21-.52.63-.52H8c.42,0,.63.19.62.52s-.23.5-.63.5Z"/><path class="cls-1" d="M5.18,27.3H4c-.4,0-.62-.18-.63-.49s.2-.52.6-.53H6.46c.38,0,.58.19.58.5s-.22.5-.58.51Z"/></svg>