<svg id="Layer_1" data-name="Layer 1" xmlns="http://www.w3.org/2000/svg" viewBox="0 0 35.67 36.36"><defs><style>.cls-1{fill:#f15e22;}</style></defs><path class="cls-1" d="M35.16,25.9a4,4,0,0,1-1.73,2.19c-2.29,1.77-4.56,3.58-6.85,5.35a9.61,9.61,0,0,1-7.83,1.9c-.61-.1-1.22-.19-1.83-.31a.66.66,0,0,1-.55-.67.67.67,0,0,1,.54-.65,1.15,1.15,0,0,1,.37,0c.86.12,1.71.29,2.57.38a8,8,0,0,0,5.91-1.75c2.46-1.9,4.9-3.83,7.35-5.74a1.43,1.43,0,0,0,.67-1.45,1.34,1.34,0,0,0-2.21-.79c-1.3,1.06-2.58,2.14-3.88,3.21-.64.53-1.28,1.07-1.93,1.59a1.05,1.05,0,0,1-.57.23c-2.91,0-5.82,0-8.73,0a.67.67,0,0,1-.29-1.3,1.37,1.37,0,0,1,.4-.05h5.62a1.39,1.39,0,0,0,1.4-.95,1.35,1.35,0,0,0-1.33-1.75c-1.14,0-2.28,0-3.42,0s-2.14,0-3.22,0a1.1,1.1,0,0,1-.86-.35,6,6,0,0,0-2.16-1.43,3.18,3.18,0,0,0-2.65.06,15.09,15.09,0,0,0-1.81,1.17A.55.55,0,0,0,8,25.2c0,2.25,0,4.49,0,6.73,0,.23.07.31.3.34.94.14,1.89.3,2.83.46a.68.68,0,0,1,.63.77.71.71,0,0,1-.88.57L8,33.6c0,.4,0,.78,0,1.16a.68.68,0,0,1-.75.75H1.28a.68.68,0,0,1-.77-.77v-12A.67.67,0,0,1,1.26,22c1.22,0,2.43,0,3.65,0a2.86,2.86,0,0,1,2.73,1.42c.43-.27.85-.55,1.29-.78a5.13,5.13,0,0,1,5.66.5,5.73,5.73,0,0,1,.77.61,1.05,1.05,0,0,0,.81.3c2,0,4,0,6,0a2.73,2.73,0,0,1,2.57,3.92.31.31,0,0,0,0,.2,2,2,0,0,0,.44-.22c1.8-1.49,3.62-2.95,5.39-4.47a2.73,2.73,0,0,1,4.55,1.44s0,.06,0,.09ZM6.56,34.14s0,0,0-.06c0-3.14,0-6.29,0-9.44a1.28,1.28,0,0,0-1.12-1.28,5.55,5.55,0,0,0-.91,0H1.88V34.14Z"/><path class="cls-1" d="M20.75.85c.52.12,1.05.2,1.57.35A8.78,8.78,0,1,1,18.13,1L19,.85ZM19.19,17c0-.82,0-1.61,0-2.39a.4.4,0,0,0-.3-.44,2.67,2.67,0,0,1-1.74-2.53.67.67,0,0,1,1-.6.72.72,0,0,1,.4.69A1.36,1.36,0,0,0,19.92,13a1.35,1.35,0,0,0,0-2.7,3.89,3.89,0,0,1-.47,0A2.71,2.71,0,0,1,19,5.06c.09,0,.23-.12.23-.19,0-.86,0-1.73,0-2.6a7.41,7.41,0,0,0,0,14.76Zm1.35,0a7.4,7.4,0,0,0,0-14.75c0,.79,0,1.58,0,2.36a.4.4,0,0,0,.31.46,2.66,2.66,0,0,1,1.72,2.51.68.68,0,1,1-1.35,0,1.35,1.35,0,1,0-2.7.1A1.42,1.42,0,0,0,19.86,9a3.5,3.5,0,0,1,1.29.32,2.53,2.53,0,0,1,1.41,2.6,2.64,2.64,0,0,1-1.73,2.31c-.11,0-.27.15-.27.22C20.54,15.3,20.54,16.15,20.54,17Z"/><path class="cls-1" d="M7.89.85a.83.83,0,0,1,.47.88c0,.37,0,.74,0,1.15H9.62c.48,0,.77.26.77.67a.67.67,0,0,1-.75.68H8.36V5.51a.68.68,0,0,1-.68.75A.66.66,0,0,1,7,5.51c0-.39,0-.77,0-1.15a.7.7,0,0,1,0-.13H5.63A.61.61,0,0,1,5,3.81a.58.58,0,0,1,.14-.71.93.93,0,0,1,.5-.21c.43,0,.86,0,1.34,0,0-.39,0-.77,0-1.15A.82.82,0,0,1,7.48.85Z"/><path class="cls-1" d="M35.16,16a.82.82,0,0,1-.88.47c-.37,0-.74,0-1.15,0v1.26a.68.68,0,1,1-1.35,0c0-.4,0-.79,0-1.19a.29.29,0,0,0,0-.09H30.51a.68.68,0,0,1-.76-.68.67.67,0,0,1,.76-.67h1.27c0-.47,0-.93,0-1.38a.66.66,0,0,1,.58-.65.68.68,0,0,1,.74.46,1,1,0,0,1,0,.3v1.27c.39,0,.77,0,1.15,0a.81.81,0,0,1,.88.48Z"/><path class="cls-1" d="M13.37,33.89a.68.68,0,1,1,.69.67A.67.67,0,0,1,13.37,33.89Z"/></svg>