<svg id="Layer_1" data-name="Layer 1" xmlns="http://www.w3.org/2000/svg" viewBox="0 0 35.67 36.36"><defs><style>.cls-1{fill:#a62222;}</style></defs><path class="cls-1" d="M27,2.12a3.93,3.93,0,0,1,1.76,1.22q2.08,2.1,4.18,4.17a2.69,2.69,0,0,1,.82,2c0,7.4,0,14.8,0,22.21a2.35,2.35,0,0,1-1.93,2.49,2.69,2.69,0,0,1-.49,0H10.68a2.33,2.33,0,0,1-2.43-2.3c0-.48,0-1,0-1.45a.51.51,0,0,1,.5-.56.5.5,0,0,1,.46.57c0,.47,0,.94,0,1.41a1.34,1.34,0,0,0,1.36,1.39c3.58,0,7.17,0,10.76,0l.11,0c-.09-.09-.16-.18-.24-.25q-1.77-1.79-3.55-3.55a1.2,1.2,0,0,1-.41-1.15.29.29,0,0,0-.09-.24c-.24-.27-.5-.53-.77-.8A9.09,9.09,0,0,1,8.8,28.7a8.82,8.82,0,0,1-5.15-3.5A9.14,9.14,0,0,1,16.4,12.43a9.24,9.24,0,0,1,2.08,12.79c.27.25.53.51.81.76a.36.36,0,0,0,.25.06,1.15,1.15,0,0,1,1.05.35c1.42,1.41,2.84,2.81,4.24,4.24a2.14,2.14,0,0,1,.3,2.66h.28c1.95,0,3.91,0,5.86,0a1.39,1.39,0,0,0,1.52-1.49V9.41c0-.12,0-.25,0-.4H28.61a1.63,1.63,0,0,1-1.75-1.74c0-1.29,0-2.57,0-3.86,0-.28-.1-.36-.36-.36H21.86c-3.71,0-7.42,0-11.13,0a1.39,1.39,0,0,0-1.46,1,2.09,2.09,0,0,0,0,.56c0,1.47,0,2.94,0,4.42,0,.13,0,.3-.05.39a.71.71,0,0,1-.44.28.69.69,0,0,1-.42-.29A.74.74,0,0,1,8.25,9V4.69a2.38,2.38,0,0,1,1.88-2.54s0,0,0,0ZM2.88,19.84a8.18,8.18,0,1,0,8.19-8.18A8.15,8.15,0,0,0,2.88,19.84ZM24.49,32.25a1.28,1.28,0,0,0-.36-1L20,27.13c-.16-.16-.27-.18-.43,0q-.58.61-1.2,1.2c-.2.19-.19.32,0,.51.69.66,1.35,1.34,2,2s1.39,1.41,2.1,2.1a1.13,1.13,0,0,0,1.3.26A1.09,1.09,0,0,0,24.49,32.25ZM27.81,3.82V7.17c0,.65.22.88.88.88h3.07L32,8Zm-9.25,22.9L17.9,26l-.72.64.71.75Z"/><path class="cls-1" d="M16.88,9H12.4a1.07,1.07,0,0,1-1.21-1.19c0-.52,0-1,0-1.54a1,1,0,0,1,1.08-1.11h9.23a1,1,0,0,1,1.07,1.09c0,.55,0,1.11,0,1.66A1,1,0,0,1,21.46,9Zm-4.7-1h9.41V6.15H12.18Z"/><path class="cls-1" d="M26.15,21h-4.1a.44.44,0,0,1-.42-.46A.45.45,0,0,1,22,20a1,1,0,0,1,.25,0h8a.46.46,0,0,1,.41.48.43.43,0,0,1-.43.45H26.15Z"/><path class="cls-1" d="M26.15,18.12H22.2a.69.69,0,0,1-.46-.19.55.55,0,0,1-.06-.45c.05-.13.23-.22.37-.29a.8.8,0,0,1,.31,0h7.83a.49.49,0,0,1,.5.46.46.46,0,0,1-.5.48h-4Z"/><path class="cls-1" d="M26.12,15.29H22.29c-.13,0-.31,0-.39-.07s-.27-.33-.24-.47.22-.28.37-.39a.64.64,0,0,1,.28,0h7.94a.45.45,0,0,1,.44.45.44.44,0,0,1-.37.47,1.09,1.09,0,0,1-.31,0Z"/><path class="cls-1" d="M24.14,23.79H22.23c-.39,0-.61-.18-.61-.48s.24-.48.62-.48H26c.4,0,.6.18.6.49s-.19.47-.6.47Z"/><path class="cls-1" d="M6.26,24c.72-1.21,2-1.15,3.06-1.43a.89.89,0,0,0-.27-.9,2.29,2.29,0,0,1-.71-1.23,3.37,3.37,0,0,0-.22-.35,1.83,1.83,0,0,1-.32-.64c0-.8,0-1.59,0-2.39a2.11,2.11,0,0,1,2.12-2c.73,0,1.47,0,2.2,0a1.17,1.17,0,0,1,1.15.76.49.49,0,0,0,.23.22,1.13,1.13,0,0,1,.77,1.07c0,.74,0,1.49,0,2.23a.89.89,0,0,1-.39.77.44.44,0,0,0-.15.25,3.25,3.25,0,0,1-.9,1.48c-.14.15-.15.43-.22.66.66.14,1.24.25,1.81.4A2.11,2.11,0,0,1,15.8,24c.11-.13.21-.24.29-.35A6.3,6.3,0,1,0,4.84,18.78c-.06.35-.28.55-.55.51s-.46-.28-.39-.66A7,7,0,0,1,8.43,13.1a7.24,7.24,0,1,1-4.49,8.18A.73.73,0,0,1,4,20.75a.5.5,0,0,1,.44-.17.66.66,0,0,1,.38.39,6.84,6.84,0,0,0,.88,2.23C5.87,23.45,6.06,23.69,6.26,24Zm4.8,2.18a6.4,6.4,0,0,0,3.78-1.26.32.32,0,0,0,.11-.47,1.12,1.12,0,0,0-.74-.59c-.41-.11-.83-.17-1.25-.28a.51.51,0,0,0-.47.13,2.4,2.4,0,0,1-3,0,.64.64,0,0,0-.44-.13,7.61,7.61,0,0,0-1.33.33,1.67,1.67,0,0,0-.6.47c-.16.18-.13.35.1.51A6.48,6.48,0,0,0,11.06,26.16Zm-2.3-7.24a.38.38,0,0,0,.19.5.81.81,0,0,1,.26.5A1.85,1.85,0,0,0,11,21.56,1.81,1.81,0,0,0,12.83,20a.73.73,0,0,1,.39-.63.22.22,0,0,0,.1-.17c0-.26,0-.52,0-.8a2.34,2.34,0,0,0-1.63.14,3.08,3.08,0,0,1-1.65.42C9.62,18.91,9.19,18.92,8.76,18.92Zm0-1h1.35a2.28,2.28,0,0,0,1.22-.3,2.73,2.73,0,0,1,.92-.28,8.08,8.08,0,0,1,1.1,0c0-.23,0-.4-.25-.42a.67.67,0,0,1-.65-.64.27.27,0,0,0-.32-.26c-.74,0-1.48,0-2.22,0a1.08,1.08,0,0,0-1.07.85A6.93,6.93,0,0,0,8.71,18Zm1.57,4.53c.12.2-.21.47.1.63a1.19,1.19,0,0,0,1.28,0c.11-.08.07-.39.1-.59Z"/></svg>