<svg id="Layer_1" data-name="Layer 1" xmlns="http://www.w3.org/2000/svg" viewBox="0 0 35.67 36.36"><defs><style>.cls-1{fill:#a62222;}</style></defs><path class="cls-1" d="M23.65,2.21h.75l.1.06a1.86,1.86,0,0,1,1.4,1.9v.54h4.38a1.89,1.89,0,0,1,2.06,2.05c0,5.77,0,11.53,0,17.3a.92.92,0,0,0,.19.52,6.27,6.27,0,0,1,1.1,2.15c.08.28.14.58.21.87V29a.58.58,0,0,0-.06.17A5.87,5.87,0,0,1,23.34,31.9a.53.53,0,0,0-.51-.25c-1.81,0-3.61,0-5.41,0a1.17,1.17,0,0,1-.37,0,.62.62,0,0,1,.24-1.2c1.23,0,2.46,0,3.69,0h1.45l-.38-1.75H5.62c-.57,0-.78-.21-.78-.77V13.45c0-.55.21-.76.77-.76H28.55c.58,0,.79.21.79.79v9l1.73.73V10.94H7.4a.61.61,0,0,1-.56-.58.62.62,0,0,1,.47-.65,2.29,2.29,0,0,1,.37,0H31.06c0-.07,0-.09,0-.11,0-.93,0-1.87,0-2.8,0-.59-.24-.84-.83-.84H26.19L25.9,6v.6a1.88,1.88,0,1,1-3.75,0V6H12v.59a1.87,1.87,0,1,1-3.74,0c0-.2,0-.41,0-.62H4c-.68,0-.89.22-.89.9V29.49c0,.7.21.92.91.92,2.73,0,5.46,0,8.19,0a.63.63,0,1,1,0,1.24H3.72A1.88,1.88,0,0,1,2,30.43l-.12-.28V6.2l0-.06a1.89,1.89,0,0,1,2-1.43H8.28c0-.24,0-.44,0-.63a1.79,1.79,0,0,1,.93-1.62c.18-.1.38-.17.56-.25h.75a.6.6,0,0,0,.11.06A1.85,1.85,0,0,1,12,4.17v.52H22.15V4.08a1.8,1.8,0,0,1,.94-1.62A4.75,4.75,0,0,1,23.65,2.21Zm8.94,26.08a4.63,4.63,0,1,0-4.65,4.61A4.65,4.65,0,0,0,32.59,28.29ZM9.45,17.61V14H6.11v3.65Zm1.31,0h3.35V14H10.76ZM15.42,14V17.6h3.34V14Zm8,0H20.05V17.6h3.36Zm4.67,0H24.72V17.6h3.36ZM9.45,27.4V23.75H6.11V27.4Zm4.67-3.66H10.77v3.65h3.35Zm4.63,3.66V23.75H15.42V27.4Zm-9.3-4.93V18.88H6.11v3.59Zm4.66,0V18.89H10.76v3.58Zm1.3,0h3.35V18.88H15.41Zm8,0V18.89H20.06v3.58Zm1.32-3.6v3.56h3.35V18.87Zm-4.67,8.52h2.1a5.43,5.43,0,0,1,1-2.51,1.44,1.44,0,0,0,.21-1.13H20.05Zm-9.28-22c0-.4,0-.79,0-1.19a.65.65,0,0,0-.61-.69.64.64,0,0,0-.63.69c0,.78,0,1.56,0,2.34a.66.66,0,0,0,.63.71.65.65,0,0,0,.62-.71C10.78,6.1,10.78,5.72,10.77,5.34Zm12.63,0c0,.39,0,.77,0,1.15A.67.67,0,0,0,24,7.2a.66.66,0,0,0,.62-.72V4.18a.63.63,0,1,0-1.25,0C23.39,4.57,23.4,4.94,23.4,5.31Z"/><path class="cls-1" d="M14.14,31a.61.61,0,0,1,.64-.61.62.62,0,0,1,.61.61.63.63,0,0,1-.63.63A.61.61,0,0,1,14.14,31Z"/><path class="cls-1" d="M5,9.7a.62.62,0,1,1,0,1.24A.62.62,0,0,1,5,9.7Z"/><path class="cls-1" d="M27.83,28.72l1.92-1.93a.61.61,0,0,1,.74-.13.54.54,0,0,1,.33.64.82.82,0,0,1-.21.4c-.75.76-1.51,1.52-2.27,2.27a.62.62,0,0,1-1,0c-.41-.39-.82-.8-1.22-1.21a.63.63,0,0,1,0-.94.64.64,0,0,1,.94.07Z"/></svg>